<?xml version="1.0" encoding="UTF-8"?>
<!DOCTYPE svg PUBLIC "-//W3C//DTD SVG 1.1//EN" "http://www.w3.org/Graphics/SVG/1.1/DTD/svg11.dtd">
<!-- Creator: CorelDRAW -->
<svg xmlns="http://www.w3.org/2000/svg" xml:space="preserve" width="960px" height="960px" style="shape-rendering:geometricPrecision; text-rendering:geometricPrecision; image-rendering:optimizeQuality; fill-rule:evenodd; clip-rule:evenodd"
viewBox="0 0 960 960"
 xmlns:xlink="http://www.w3.org/1999/xlink">
 <defs>
  <style type="text/css">
   <![CDATA[
    .fil1 {fill:#0097A7;fill-rule:nonzero}
    .fil0 {fill:#FFC107;fill-rule:nonzero}
   ]]>
  </style>
 </defs>
 <g id="Capa_x0020_1">
  <metadata id="CorelCorpID_0Corel-Layer"/>
  <path class="fil0" d="M902.549 404.591c-6.29027,0 -13.2794,-1.25783 -20.8275,-3.63439 -35.2252,-11.4618 -78.2778,-17.1931 -129.019,-17.1931 -16.6337,0 -35.7838,1.11836 -57.45,3.21487 -21.6661,2.23672 -45.8483,5.59143 -72.2672,9.92466 0.558992,52.4183 0.558992,97.4279 0,135.029 41.5151,-10.0641 75.9016,-15.0962 103.159,-15.0962 50.7409,0 95.0513,2.37619 132.653,6.9891 35.2252,4.33323 52.8374,22.924 52.8374,55.6331 0,15.9349 -5.59106,29.2142 -16.7735,39.8377 -11.1829,10.6231 -24.8814,15.9349 -40.9561,15.9349 -14.2579,0 -35.5045,-1.11798 -63.8804,-3.35471 -28.3756,-2.0965 -49.6222,-3.21487 -63.8801,-3.21487 -19.8489,0 -54.2351,6.29027 -103.159,18.7306l0 256.779c0,15.9352 -6.15043,29.2142 -18.5911,39.8377 -12.4403,10.6235 -26.6982,15.9352 -42.7729,15.9352 -15.9352,0 -28.6552,-5.31175 -38.5799,-15.7954 -9.78444,-10.4837 -14.677,-23.763 -14.677,-39.8377l0 -469.387c0,-10.6235 0.139843,-26.838 0.55937,-48.3643 0.41915,-21.5263 0.698835,-37.6014 0.698835,-48.3643 0,-16.0751 5.31175,-29.4939 16.0747,-40.1174 10.9032,-10.6235 24.4619,-15.9352 40.8163,-15.9352 10.3438,0 19.4298,2.09688 27.3974,6.15043 31.5904,-5.45121 60.6652,-9.50513 87.2236,-12.0212 26.4189,-2.65587 50.3214,-3.9137 71.568,-3.9137 31.1717,0 70.3102,6.42973 117.557,19.1501 59.1277,16.0747 88.7614,34.8053 88.7614,56.1921 0,15.5157 -5.59143,28.9346 -16.6341,40.1174 -11.043,11.1825 -24.322,16.7735 -39.8377,16.7735z"/>
  <path class="fil1" d="M59.8654 626.378c-15.676,-0.272504 -28.8979,-5.58879 -39.5301,-16.0845 -10.6326,-10.6322 -15.9485,-23.3091 -15.9485,-38.1672 0,-26.7167 1.22683,-66.6557 3.81657,-119.817 2.59011,-53.2974 3.81694,-93.2364 3.81694,-119.817 0,-29.5793 -0.545386,-73.8803 -1.77222,-133.039 -1.22683,-59.0226 -1.77184,-103.46 -1.77184,-133.039 0,-14.5856 7.08813,-29.1708 21.1279,-43.6195 14.1763,-14.5852 29.1704,-21.8098 45.1189,-21.8098 8.86035,0 30.9426,8.31496 66.3832,24.8084 41.1659,19.629 65.7018,30.6701 73.4714,33.1238 77.9698,25.2174 144.489,64.4746 199.559,117.363 65.8382,63.1117 98.6891,132.903 98.6891,209.237 0,46.0732 -11.314,89.9652 -33.9417,131.404 -22.6273,42.3927 -53.7063,76.334 -93.1,101.96 -44.1645,28.7614 -106.322,43.0741 -186.473,43.0741 -19.4925,0 -41.8473,-2.86261 -67.0651,-8.4514 -30.6697,-6.81524 -54.7967,-15.9481 -72.3806,-27.1257zm224.504 -410.431c-25.7628,-16.357 -81.2413,-41.8473 -166.163,-76.7429l0 395.437c10.3597,6.54312 22.3548,11.5865 35.7135,14.8577 13.4944,3.408 28.4886,5.04378 44.9824,5.04378 57.5229,0 98.8252,-8.04246 123.77,-23.9909 23.718,-15.1302 42.6652,-35.7131 56.5689,-61.8849 14.0398,-26.0353 20.9915,-53.2974 20.9915,-81.5138 0,-65.9743 -38.5757,-123.088 -115.864,-171.206z"/>
 </g>
</svg>
